<svg width="42" height="32" viewBox="0 0 42 32" fill="none" xmlns="http://www.w3.org/2000/svg">
    <g clip-path="url(#clip0_48_2)">
        <path d="M7.48591 31.841V29.723C7.48591 28.9109 6.99159 28.3816 6.14432 28.3816C5.72076 28.3816 5.26182 28.5228 4.94408 28.9817C4.69708 28.5934 4.34412 28.3816 3.81459 28.3816C3.46146 28.3816 3.10866 28.4874 2.82613 28.8757V28.4522H2.08482V31.841H2.82613V29.97C2.82613 29.37 3.14388 29.0875 3.63819 29.0875C4.13218 29.0875 4.37949 29.4053 4.37949 29.97V31.841H5.1208V29.97C5.1208 29.37 5.4736 29.0875 5.93254 29.0875C6.42685 29.0875 6.67385 29.4053 6.67385 29.97V31.841H7.48591ZM18.4642 28.4522H17.2641V27.4285H16.5228V28.4522H15.8521V29.1227H16.5226V30.6761C16.5226 31.4528 16.8404 31.9116 17.6876 31.9116C18.0054 31.9116 18.3582 31.8057 18.6055 31.6646L18.3936 31.0291C18.1818 31.1702 17.9348 31.2056 17.7582 31.2056C17.4053 31.2056 17.2641 30.9938 17.2641 30.6407V29.1227H18.4642V28.4522ZM24.7477 28.3814C24.3242 28.3814 24.0418 28.5934 23.8652 28.8757V28.4522H23.1239V31.841H23.8652V29.9348C23.8652 29.37 24.1122 29.0523 24.5712 29.0523C24.7124 29.0523 24.8889 29.0877 25.0301 29.1229L25.2419 28.417C25.1007 28.3816 24.8889 28.3816 24.7477 28.3816V28.3814ZM15.2519 28.7345C14.8988 28.4874 14.4047 28.3816 13.8751 28.3816C13.028 28.3816 12.4633 28.8051 12.4633 29.4759C12.4633 30.0408 12.8868 30.3583 13.6281 30.4643L13.9811 30.4997C14.3694 30.5701 14.5812 30.6761 14.5812 30.8527C14.5812 31.0997 14.2989 31.2762 13.8045 31.2762C13.3104 31.2762 12.922 31.0997 12.6749 30.9233L12.3219 31.488C12.7103 31.7704 13.2398 31.9116 13.7692 31.9116C14.7576 31.9116 15.3225 31.4528 15.3225 30.8173C15.3225 30.2172 14.8636 29.8994 14.1575 29.7936L13.8045 29.7582C13.4868 29.7228 13.2398 29.6524 13.2398 29.4406C13.2398 29.1935 13.4868 29.0523 13.8751 29.0523C14.2988 29.0523 14.7224 29.2287 14.9342 29.3347L15.2519 28.7345ZM34.9496 28.3816C34.5259 28.3816 34.2435 28.5934 34.067 28.8757V28.4522H33.3257V31.841H34.067V29.9348C34.067 29.37 34.3141 29.0523 34.7729 29.0523C34.9142 29.0523 35.0908 29.0877 35.232 29.1229L35.4438 28.417C35.3026 28.3816 35.0908 28.3816 34.9496 28.3816ZM25.489 30.1466C25.489 31.1702 26.195 31.9116 27.2894 31.9116C27.7836 31.9116 28.1365 31.8057 28.4895 31.5234L28.1365 30.9233C27.8541 31.135 27.5718 31.2408 27.254 31.2408C26.6539 31.2408 26.2303 30.8173 26.2303 30.1466C26.2303 29.5112 26.6539 29.0875 27.254 29.0523C27.5718 29.0523 27.8541 29.1581 28.1365 29.37L28.4895 28.7699C28.1365 28.4874 27.7836 28.3816 27.2894 28.3816C26.195 28.3816 25.489 29.1229 25.489 30.1466ZM32.3374 30.1466V28.4522H31.5961V28.8757C31.3489 28.5581 30.9959 28.3816 30.537 28.3816C29.5839 28.3816 28.8426 29.1229 28.8426 30.1466C28.8426 31.1702 29.5839 31.9116 30.537 31.9116C31.0312 31.9116 31.3843 31.7351 31.5961 31.4174V31.841H32.3374V30.1466ZM29.6191 30.1466C29.6191 29.5464 30.0075 29.0523 30.6428 29.0523C31.2429 29.0523 31.6666 29.5112 31.6666 30.1466C31.6666 30.7467 31.2429 31.2408 30.6428 31.2408C30.0075 31.2055 29.6191 30.7467 29.6191 30.1466ZM20.7588 28.3816C19.7704 28.3816 19.0643 29.0875 19.0643 30.1466C19.0643 31.2056 19.7702 31.9116 20.794 31.9116C21.2882 31.9116 21.7825 31.7704 22.1709 31.4528L21.8177 30.9233C21.5354 31.135 21.1824 31.2762 20.8294 31.2762C20.3705 31.2762 19.9116 31.0644 19.8056 30.4642H22.312V30.1819C22.3474 29.0875 21.7121 28.3816 20.7588 28.3816ZM20.7588 29.0169C21.2176 29.0169 21.5355 29.2995 21.6059 29.829H19.841C19.9116 29.37 20.2293 29.0169 20.7588 29.0169ZM39.1503 30.1466V27.1107H38.409V28.8757C38.1618 28.5581 37.8089 28.3816 37.3499 28.3816C36.3969 28.3816 35.6556 29.1229 35.6556 30.1466C35.6556 31.1702 36.3969 31.9116 37.3499 31.9116C37.8443 31.9116 38.1972 31.7351 38.409 31.4174V31.841H39.1503V30.1466ZM36.4322 30.1466C36.4322 29.5464 36.8204 29.0523 37.4559 29.0523C38.056 29.0523 38.4796 29.5112 38.4796 30.1466C38.4796 30.7467 38.056 31.2408 37.4559 31.2408C36.8204 31.2055 36.4322 30.7467 36.4322 30.1466ZM11.6512 30.1466V28.4522H10.9099V28.8757C10.6627 28.5581 10.3098 28.3816 9.85085 28.3816C8.89776 28.3816 8.15646 29.1229 8.15646 30.1466C8.15646 31.1702 8.89776 31.9116 9.85085 31.9116C10.3452 31.9116 10.6981 31.7351 10.9099 31.4174V31.841H11.6512V30.1466ZM8.89776 30.1466C8.89776 29.5464 9.28611 29.0523 9.92144 29.0523C10.5216 29.0523 10.9453 29.5112 10.9453 30.1466C10.9453 30.7467 10.5216 31.2408 9.92144 31.2408C9.28611 31.2055 8.89776 30.7467 8.89776 30.1466Z" fill="black"/>
        <path d="M15.0048 2.71807H26.1244V22.6981H15.0048V2.71807Z" fill="#FF5F00"/>
        <path d="M15.7109 12.7082C15.7109 8.64868 17.617 5.04796 20.5469 2.71807C18.3937 1.02368 15.6757 0 12.7104 0C5.68538 0 0.00208664 5.6833 0.00208664 12.7082C0.00208664 19.7329 5.68538 25.4164 12.7103 25.4164C15.6755 25.4164 18.3936 24.3927 20.5469 22.6981C17.617 20.4036 15.7109 16.7677 15.7109 12.7082Z" fill="#EB001B"/>
        <path d="M41.1271 12.7082C41.1271 19.7329 35.4438 25.4164 28.4189 25.4164C25.4537 25.4164 22.7356 24.3927 20.5823 22.6981C23.5475 20.3684 25.4184 16.7677 25.4184 12.7082C25.4184 8.64868 23.5121 5.04796 20.5823 2.71807C22.7354 1.02368 25.4537 0 28.4189 0C35.4438 0 41.1271 5.71867 41.1271 12.7082Z" fill="#F79E1B"/>
    </g>
    <defs>
        <clipPath id="clip0_48_2">
            <rect width="41.17" height="32" fill="white"/>
        </clipPath>
    </defs>
</svg>
