<svg width="32" height="32" viewBox="0 0 32 32" fill="none" xmlns="http://www.w3.org/2000/svg">
    <path d="M10.0933 26.6667C8.30666 26.6667 6.85333 25.2133 6.85333 23.4267C6.85333 22 8.42666 19.3333 10.0933 17.08C11.76 19.3333 13.3333 22 13.3333 23.4267C13.3333 23.8521 13.2495 24.2735 13.0867 24.6666C12.9239 25.0597 12.6852 25.4168 12.3844 25.7177C12.0835 26.0186 11.7263 26.2572 11.3332 26.42C10.9401 26.5829 10.5188 26.6667 10.0933 26.6667ZM16 2.66666C14.249 2.66666 12.5152 3.01154 10.8976 3.6816C9.27988 4.35167 7.81002 5.33379 6.57191 6.57191C4.07142 9.07239 2.66666 12.4638 2.66666 16C2.66666 18.3333 3.26666 20.5067 4.32 22.4133C4.53333 21.3333 5.08 20.0933 5.74666 18.8933C5.47143 17.9536 5.33224 16.9792 5.33333 16C5.33333 13.171 6.45714 10.4579 8.45753 8.45753C10.4579 6.45714 13.171 5.33333 16 5.33333C18.829 5.33333 21.5421 6.45714 23.5425 8.45753C25.5429 10.4579 26.6667 13.171 26.6667 16C26.6667 18.829 25.5429 21.5421 23.5425 23.5425C21.5421 25.5429 18.829 26.6667 16 26.6667C15.68 26.6667 15.3733 26.6667 15.0533 26.6133C14.4267 27.6 13.52 28.3733 12.4533 28.84C13.5867 29.16 14.7733 29.3333 16 29.3333C17.751 29.3333 19.4848 28.9885 21.1024 28.3184C22.7201 27.6483 24.19 26.6662 25.4281 25.4281C26.6662 24.19 27.6483 22.7201 28.3184 21.1024C28.9885 19.4848 29.3333 17.751 29.3333 16C29.3333 14.249 28.9885 12.5152 28.3184 10.8976C27.6483 9.27988 26.6662 7.81002 25.4281 6.57191C24.19 5.33379 22.7201 4.35167 21.1024 3.6816C19.4848 3.01154 17.751 2.66666 16 2.66666ZM16 18.6667C15.4533 18.6667 14.92 18.72 14.4133 18.8267C14.88 19.6667 15.2933 20.5333 15.5867 21.3333H16C17.6667 21.3333 19.0933 22 19.6933 22.9733L21.5867 21.08C20.3867 19.6267 18.3333 18.6667 16 18.6667ZM20.6667 10.6667C19.6 10.6667 18.6667 11.6 18.6667 12.6667C18.6667 13.7333 19.6 14.6667 20.6667 14.6667C21.7333 14.6667 22.6667 13.7333 22.6667 12.6667C22.6667 11.6 21.7333 10.6667 20.6667 10.6667ZM13.3333 12.6667C13.3333 11.6 12.4 10.6667 11.3333 10.6667C10.2667 10.6667 9.33333 11.6 9.33333 12.6667C9.33333 13.7333 10.2667 14.6667 11.3333 14.6667C12.4 14.6667 13.3333 13.7333 13.3333 12.6667Z" fill="#C3C3C3"/>
</svg>
