<svg width="15" height="15" viewBox="0 0 15 15" fill="none" xmlns="http://www.w3.org/2000/svg">
<path d="M7.18752 11.25C9.68752 11.25 11.85 9.8625 12.9625 7.8125C11.85 5.7625 9.68752 4.375 7.18752 4.375C4.68752 4.375 2.52502 5.7625 1.41252 7.8125C2.52502 9.8625 4.68752 11.25 7.18752 11.25ZM7.18752 3.75C10.0375 3.75 12.5 5.40625 13.6625 7.8125C12.5 10.2187 10.0375 11.875 7.18752 11.875C4.33752 11.875 1.87502 10.2187 0.712524 7.8125C1.87502 5.40625 4.33752 3.75 7.18752 3.75ZM7.18752 5C8.75002 5 10 6.25 10 7.8125C10 9.375 8.75002 10.625 7.18752 10.625C5.62502 10.625 4.37502 9.375 4.37502 7.8125C4.37502 6.25 5.62502 5 7.18752 5ZM7.18752 5.625C6.60736 5.625 6.05096 5.85547 5.64073 6.2657C5.23049 6.67594 5.00002 7.23234 5.00002 7.8125C5.00002 8.39266 5.23049 8.94906 5.64073 9.3593C6.05096 9.76953 6.60736 10 7.18752 10C7.76769 10 8.32408 9.76953 8.73432 9.3593C9.14456 8.94906 9.37502 8.39266 9.37502 7.8125C9.37502 7.23234 9.14456 6.67594 8.73432 6.2657C8.32408 5.85547 7.76769 5.625 7.18752 5.625Z" fill="#333333"/>
</svg>
