<svg width="13" height="11" viewBox="0 0 13 11" fill="none" xmlns="http://www.w3.org/2000/svg">
<path d="M0.875 0.44375L1.31875 0L11.7875 10.4688L11.3438 10.9125L9.25625 8.81875C8.4 9.175 7.4625 9.375 6.475 9.375C3.625 9.375 1.1625 7.71875 0 5.3125C0.60625 4.0625 1.55625 3.01875 2.725 2.3L0.875 0.44375ZM6.475 8.75C7.28125 8.75 8.05625 8.60625 8.76875 8.3375L8.06875 7.63125C7.6125 7.94375 7.06875 8.125 6.475 8.125C4.9125 8.125 3.6625 6.875 3.6625 5.3125C3.6625 4.71875 3.84375 4.175 4.15625 3.71875L3.1875 2.75625C2.14103 3.36592 1.28092 4.2498 0.7 5.3125C1.8125 7.3625 3.975 8.75 6.475 8.75ZM12.25 5.3125C11.1375 3.2625 8.975 1.875 6.475 1.875C5.75625 1.875 5.05625 1.99375 4.40625 2.20625L3.91875 1.71875C4.7125 1.4125 5.575 1.25 6.475 1.25C9.325 1.25 11.7875 2.90625 12.95 5.3125C12.382 6.49114 11.5023 7.49186 10.4063 8.20625L9.95625 7.75C10.9125 7.15 11.7063 6.3125 12.25 5.3125ZM6.475 2.5C8.0375 2.5 9.2875 3.75 9.2875 5.3125C9.2875 5.825 9.15 6.3 8.9125 6.7125L8.45 6.25C8.5875 5.9625 8.6625 5.65 8.6625 5.3125C8.6625 4.73234 8.43203 4.17594 8.0218 3.7657C7.61156 3.35547 7.05516 3.125 6.475 3.125C6.1375 3.125 5.825 3.2 5.5375 3.3375L5.075 2.875C5.4875 2.6375 5.9625 2.5 6.475 2.5ZM4.2875 5.3125C4.2875 5.89266 4.51797 6.44906 4.9282 6.8593C5.33844 7.26953 5.89484 7.5 6.475 7.5C6.89375 7.5 7.28125 7.38125 7.6125 7.1875L4.6 4.175C4.40625 4.50625 4.2875 4.89375 4.2875 5.3125Z" fill="#333333"/>
</svg>
