<svg width="32" height="32" viewBox="0 0 32 32" fill="none" xmlns="http://www.w3.org/2000/svg">
    <path d="M24 17.3333H17.3333V24C17.3333 24.7333 16.7333 25.3333 16 25.3333C15.2667 25.3333 14.6667 24.7333 14.6667 24V17.3333H8C7.26667 17.3333 6.66667 16.7333 6.66667 16C6.66667 15.2667 7.26667 14.6667 8 14.6667H14.6667V8.00001C14.6667 7.26667 15.2667 6.66667 16 6.66667C16.7333 6.66667 17.3333 7.26667 17.3333 8.00001V14.6667H24C24.7333 14.6667 25.3333 15.2667 25.3333 16C25.3333 16.7333 24.7333 17.3333 24 17.3333Z" fill="#8462B7"/>
</svg>
