<svg width="31" height="31" viewBox="0 0 31 31" fill="none" xmlns="http://www.w3.org/2000/svg">
    <path d="M15.5 2.58334L11.625 6.45834H6.45833V11.625L2.58333 15.5L6.45833 19.375V24.5417H11.625L15.5 28.4167L19.375 24.5417H24.5417V19.375L28.4167 15.5L24.5417 11.625V6.45834H19.375L15.5 2.58334Z" stroke="#8462B7" stroke-width="1.25" stroke-linejoin="round"/>
    <path d="M15.5 19.375C16.5277 19.375 17.5133 18.9667 18.24 18.24C18.9667 17.5133 19.375 16.5277 19.375 15.5C19.375 14.4723 18.9667 13.4867 18.24 12.76C17.5133 12.0333 16.5277 11.625 15.5 11.625C14.4723 11.625 13.4867 12.0333 12.76 12.76C12.0333 13.4867 11.625 14.4723 11.625 15.5C11.625 16.5277 12.0333 17.5133 12.76 18.24C13.4867 18.9667 14.4723 19.375 15.5 19.375Z" stroke="#8462B7" stroke-width="1.25" stroke-linejoin="round"/>
</svg>
