<svg width="32" height="32" viewBox="0 0 32 32" fill="none" xmlns="http://www.w3.org/2000/svg">
    <path fill-rule="evenodd" clip-rule="evenodd" d="M16.9427 3.05733C16.6926 2.80737 16.3536 2.66695 16 2.66695C15.6464 2.66695 15.3074 2.80737 15.0573 3.05733L5.724 12.3907L3.05733 15.0573C2.92999 15.1803 2.82841 15.3275 2.75853 15.4901C2.68865 15.6528 2.65187 15.8278 2.65033 16.0048C2.6488 16.1818 2.68253 16.3574 2.74957 16.5213C2.81661 16.6851 2.91562 16.834 3.04081 16.9592C3.166 17.0844 3.31487 17.1834 3.47873 17.2504C3.64259 17.3175 3.81816 17.3512 3.9952 17.3497C4.17224 17.3481 4.3472 17.3113 4.50987 17.2415C4.67255 17.1716 4.81967 17.07 4.94267 16.9427L5.33333 16.552V25.3333C5.33333 26.3942 5.75476 27.4116 6.50491 28.1618C7.25505 28.9119 8.27247 29.3333 9.33333 29.3333H22.6667C23.7275 29.3333 24.745 28.9119 25.4951 28.1618C26.2452 27.4116 26.6667 26.3942 26.6667 25.3333V16.552L27.0573 16.9427C27.3088 17.1855 27.6456 17.3199 27.9952 17.3169C28.3448 17.3139 28.6792 17.1736 28.9264 16.9264C29.1736 16.6792 29.3139 16.3448 29.3169 15.9952C29.3199 15.6456 29.1855 15.3088 28.9427 15.0573L16.9427 3.05733Z" fill="#8462B7"/>
</svg>
