<svg width="32" height="32" viewBox="0 0 32 32" fill="none" xmlns="http://www.w3.org/2000/svg">
    <path d="M26.3333 13.3333C26.3333 13.0681 26.228 12.8138 26.0404 12.6262C25.8529 12.4387 25.5985 12.3333 25.3333 12.3333C25.0681 12.3333 24.8138 12.4387 24.6262 12.6262C24.4387 12.8138 24.3333 13.0681 24.3333 13.3333H26.3333ZM7.66666 13.3333C7.66666 13.0681 7.56131 12.8138 7.37377 12.6262C7.18623 12.4387 6.93188 12.3333 6.66666 12.3333C6.40145 12.3333 6.14709 12.4387 5.95956 12.6262C5.77202 12.8138 5.66666 13.0681 5.66666 13.3333H7.66666ZM27.2933 16.7067C27.3849 16.8049 27.4953 16.8837 27.6179 16.9384C27.7406 16.993 27.873 17.0224 28.0073 17.0248C28.1416 17.0272 28.2749 17.0025 28.3995 16.9522C28.524 16.9019 28.6371 16.827 28.732 16.7321C28.827 16.6371 28.9019 16.524 28.9522 16.3995C29.0025 16.275 29.0272 16.1416 29.0248 16.0073C29.0224 15.873 28.993 15.7406 28.9384 15.618C28.8837 15.4953 28.8049 15.3849 28.7067 15.2933L27.2933 16.7067ZM16 4.00001L16.7067 3.29334C16.5192 3.10607 16.265 3.00089 16 3.00089C15.735 3.00089 15.4808 3.10607 15.2933 3.29334L16 4.00001ZM3.29333 15.2933C3.19508 15.3849 3.11628 15.4953 3.06162 15.618C3.00697 15.7406 2.97758 15.873 2.97521 16.0073C2.97284 16.1416 2.99754 16.275 3.04783 16.3995C3.09813 16.524 3.17299 16.6371 3.26795 16.7321C3.3629 16.827 3.47602 16.9019 3.60053 16.9522C3.72505 17.0025 3.85842 17.0272 3.99269 17.0248C4.12696 17.0224 4.25938 16.993 4.38205 16.9384C4.50471 16.8837 4.61511 16.8049 4.70666 16.7067L3.29333 15.2933ZM9.33333 29H22.6667V27H9.33333V29ZM26.3333 25.3333V13.3333H24.3333V25.3333H26.3333ZM7.66666 25.3333V13.3333H5.66666V25.3333H7.66666ZM28.7067 15.2933L16.7067 3.29334L15.2933 4.70667L27.2933 16.7067L28.7067 15.2933ZM15.2933 3.29334L3.29333 15.2933L4.70666 16.7067L16.7067 4.70667L15.2933 3.29334ZM22.6667 29C23.6391 29 24.5718 28.6137 25.2594 27.9261C25.947 27.2384 26.3333 26.3058 26.3333 25.3333H24.3333C24.3333 26.2533 23.5867 27 22.6667 27V29ZM9.33333 27C8.41333 27 7.66666 26.2533 7.66666 25.3333H5.66666C5.66666 26.3058 6.05297 27.2384 6.7406 27.9261C7.42824 28.6137 8.36087 29 9.33333 29V27Z" fill="#8462B7"/>
</svg>
